<?xml version="1.0" encoding="utf-8"?>
<svg width="300" height="220" viewBox="0 0 300 220" version="1.1" xmlns="http://www.w3.org/2000/svg">
  <style>
.sall{stroke:#000;fill:#fff;stroke-width:2;stroke-linejoin:round;stroke-linecap:round;}
.snof{stroke:#000;fill:none;stroke-width:2;stroke-linejoin:round;stroke-linecap:round;}
.sgnd{stroke:#000;fill:#fff;stroke-width:4;stroke-linejoin:round;stroke-linecap:round;}
</style>
  <defs>
    <g id="ry">
      <path d="M0,0h8v40h-16v-40h8" stroke="#000" fill="#fff" stroke-width="4" stroke-linejoin="round" stroke-linecap="round"/>
    </g>
    <g id="po">
      <circle r="6" style="stroke: none; fill:#000;" stroke-width="4"/>
    </g>
    <g id="pa">
      <circle r="6" style="stroke: #000; fill:#fff;" stroke-width="4"/>
    </g>
    <g id="pad">
      <polyline points="0,0, 0,16" stroke="#000" fill="#000" stroke-width="12" stroke-linejoin="round" stroke-linecap="round"/>
    </g>
  </defs>
<path d="M10,10h120v180h-120v-180m160 0h120v180h-120v-180" stroke="#999" fill="#bbb" stroke-width="2" stroke-linejoin="round" stroke-linecap="round"/>
<path d="M20 40v-20h160v20m0 120v20h-140v-100h-20m0 80v40h260v-40m-160 0h30v-40h30m-60 0v-20h60v-20m-60-40v20h160v-20m-50 20v60h50" stroke-width="4" stroke="#000" fill="none"/>
<text font-size="14px" transform="translate(215, 110) rotate(-90)">4.7K</text>
<use href="#po" x="20" y="40"/>
<use href="#po" x="20" y="80"/>
<use href="#po" x="20" y="120"/>
<use href="#po" x="20" y="160"/>
<use href="#po" x="120" y="40"/>
<use href="#po" x="120" y="80"/>
<use href="#po" x="120" y="120"/>
<use href="#po" x="120" y="160"/>
<use href="#pa" x="180" y="40"/>
<use href="#pa" x="180" y="80"/>
<use href="#pa" x="180" y="120"/>
<use href="#pa" x="180" y="160"/>
<use href="#pa" x="280" y="40"/>
<use href="#pa" x="280" y="80"/>
<use href="#pa" x="280" y="120"/>
<use href="#pa" x="280" y="160"/>
<use href="#ry" x="230" y="70"/>
<use href="#po" x="230" y="60"/>
</svg>
